# xmcd
# 
# Track frame offsets:
#     150
#     15277
#     36330
#     50615
#     64930
#     81970
#     97030
#     112632
#     130887
#     144415
#     157465
#     169832
#     182667
# 
# Disc length: 2709
# 
# Revision: 4
# Processed by: cddbd v1.5.2PL0 Copyright (c) Steve Scherf et al.
# Submitted via: fre:ac v1.0.27
# 
DISCID=af0a930d
DTITLE=Alison Krauss and Union Station - New Favorite
DYEAR=2001
DGENRE=Bluegrass
TTITLE0=Let Me Touch You For Awhile
TTITLE1=The Boy Who Wouldn't Hoe Corn
TTITLE2=The Lucky One
TTITLE3=Choctaw Hayride
TTITLE4=Crazy Faith
TTITLE5=Momma Cried
TTITLE6=I'm Gone
TTITLE7=Daylight
TTITLE8=Bright Sunny South
TTITLE9=Stars
TTITLE10=It All Comes Down To You
TTITLE11=Take Me For Longing
TTITLE12=New Favorite
EXTD=
EXTT0=
EXTT1=
EXTT2=
EXTT3=
EXTT4=
EXTT5=
EXTT6=
EXTT7=
EXTT8=
EXTT9=
EXTT10=
EXTT11=
EXTT12=
PLAYORDER=
